<?xml version="1.0" encoding="UTF-8" standalone="no"?> <svg id="Layer_1" data-name="Layer 1" xmlns="http://www.w3.org/2000/svg" viewBox="0 0 128 128"><defs><style>.cls-1{fill:#1d75b8;}.cls-2{fill:#2d3e50;}</style></defs><title>b</title><path class="cls-1" d="M64.17895,71.13223a1.29807,1.29807,0,0,0,1.29664-1.29653V67.19714a1.29669,1.29669,0,1,0-2.59337,0V69.8357A1.29807,1.29807,0,0,0,64.17895,71.13223Z"/><path class="cls-1" d="M80.51789,82.36817H77.87945a1.29664,1.29664,0,0,0,0,2.59328h2.63843a1.29664,1.29664,0,1,0,0-2.59328Z"/><path class="cls-1" d="M64.05022,96.06869a1.29821,1.29821,0,0,0-1.29661,1.29673v2.63831a1.29662,1.29662,0,1,0,2.59325,0V97.36542A1.29822,1.29822,0,0,0,64.05022,96.06869Z"/><path class="cls-1" d="M50.34975,82.23947H47.71119a1.29662,1.29662,0,1,0,0,2.59323h2.63856a1.29662,1.29662,0,0,0,0-2.59323Z"/><path class="cls-1" d="M88.82309,83.10046a24.82613,24.82613,0,0,0-49.64606.00149c-.0031.1963-.00459.39247-.0031.58518a24.94131,24.94131,0,0,0,24.79378,24.85649l.03234.0005.03234-.0005A24.94008,24.94008,0,0,0,88.82607,83.69209C88.82755,83.49591,88.82607,83.29961,88.82309,83.10046Zm-24.823,21.38235A20.90584,20.90584,0,0,1,43.23474,83.66c-.00124-.16457,0-.32927.0026-.49236a20.7651,20.7651,0,0,1,41.52543-.00285c.00248.16457.004.32915.00248.4988A20.9049,20.9049,0,0,1,64.00006,104.48281Z"/><path class="cls-1" d="M72.34636,73.86536a1.09471,1.09471,0,0,0-.77132.342L65.9633,80.10195l-.47067-.175a3.9919,3.9919,0,0,0-1.37707-.24922H64.096a3.91887,3.91887,0,0,0-3.90516,3.83985l-.0005.09307A3.92786,3.92786,0,0,0,64.11184,87.523l.05143.00025a3.91751,3.91751,0,0,0,3.87517-3.87864l.0005-.0347a3.86822,3.86822,0,0,0-.29569-1.52219l-.19035-.458,5.61906-5.902a1.10267,1.10267,0,0,0-.03817-1.55862A1.07345,1.07345,0,0,0,72.34636,73.86536Z"/><path class="cls-2" d="M120.20749,17.15717H100.78112V8.11028a5.98582,5.98582,0,1,0-11.97164,0v9.04689H39.19064V8.11028a5.98582,5.98582,0,1,0-11.97164,0v9.04689H7.79251a5.67372,5.67372,0,0,0-5.67226,5.67226V35.97608H125.87976V22.82943A5.67372,5.67372,0,0,0,120.20749,17.15717Z"/><path class="cls-2" d="M2.12024,120.20327a5.67375,5.67375,0,0,0,5.67226,5.67228h112.415a5.67375,5.67375,0,0,0,5.67226-5.67228V41.32336H2.12024ZM9.506,48.70912H118.494v69.78066H9.506Z"/></svg>